<svg xmlns="http://www.w3.org/2000/svg" version="1.0" width="175.000000pt" height="215.000000pt" viewBox="0 0 175.000000 215.000000" preserveAspectRatio="xMidYMid meet">
<g transform="translate(0.000000,215.000000) scale(0.100000,-0.100000)" fill="#000000" stroke="none">
<path d="M536 2063 c-14 -21 -39 -72 -56 -113 -48 -115 -79 -170 -125 -225 -96 -114 -109 -167 -45 -183 8 -2 32 -6 52 -9 42 -6 46 0 -50 -82 -68 -58 -85 -81 -76 -105 7 -18 56 -36 101 -36 32 0 33 -1 22 -22 -7 -12 -43 -55 -81 -95 -68 -72 -108 -142 -108 -189 0 -29 34 -53 86 -60 96 -13 100 -17 57 -62 -16 -15 -20 -18 -11 -7 10 12 18 24 18 28 0 12 -130 -130 -170 -185 -20 -29 -47 -73 -60 -97 -21 -43 -22 -46 -6 -76 26 -48 50 -59 88 -39 49 25 138 54 169 54 57 0 84 -74 59 -160 -20 -65 -39 -152 -32 -146 12 12 52 181 52 222 0 32 -6 46 -30 69 -25 24 -34 27 -72 22 -24 -3 -75 -19 -115 -36 l-71 -29 -21 22 c-35 37 -27 76 35 168 57 84 134 171 134 151 0 -6 -16 -25 -36 -42 -19 -17 -60 -68 -90 -113 -44 -67 -54 -89 -52 -117 5 -53 24 -58 104 -26 38 16 92 30 120 33 49 4 53 3 78 -30 32 -43 34 -106 6 -192 -11 -33 -20 -72 -20 -88 0 -32 11 -34 74 -17 29 8 56 8 103 -1 79 -15 99 -4 83 45 -5 17 -16 50 -24 75 -8 25 -21 63 -30 85 -19 51 -20 109 -1 125 15 12 93 8 207 -11 76 -13 98 -2 98 49 0 30 -8 45 -45 82 -49 50 -121 162 -102 159 23 -4 97 14 114 26 28 21 3 82 -53 129 -25 21 -53 55 -61 75 -8 20 -21 43 -29 52 -13 15 -10 17 40 21 66 5 106 29 106 62 0 14 -19 46 -46 78 -25 29 -57 73 -71 98 -14 25 -37 62 -50 83 -14 22 -22 41 -20 44 3 2 24 -1 48 -7 37 -10 45 -9 68 8 14 10 28 27 29 37 2 10 -19 50 -47 90 -58 84 -121 202 -121 228 0 23 -49 168 -62 185 -21 25 -36 10 -73 -70 -20 -46 -52 -115 -70 -154 -18 -39 -57 -100 -87 -135 -69 -81 -81 -104 -73 -136 4 -16 2 -22 -5 -18 -19 12 -10 53 22 98 18 24 54 72 80 106 26 34 56 86 67 116 35 94 92 206 107 212 33 13 70 -53 98 -177 16 -67 52 -139 122 -246 30 -44 54 -87 54 -95 0 -9 -13 -28 -29 -43 -30 -29 -49 -31 -106 -10 -16 6 -18 4 -8 -6 7 -8 30 -15 51 -17 31 -3 43 2 70 28 18 17 32 40 32 50 0 10 -20 47 -45 82 -66 95 -116 192 -130 256 -26 114 -67 191 -102 191 -7 0 -24 -17 -37 -37z"/>
<path d="M1348 1521 c-18 -16 -44 -51 -58 -78 -13 -26 -42 -74 -65 -107 -70 -101 -75 -111 -75 -132 0 -28 63 -84 95 -84 14 0 28 0 32 -1 4 0 9 4 11 9 1 5 -11 7 -28 4 -28 -4 -88 23 -77 35 3 2 17 -3 31 -12 17 -12 35 -15 56 -10 51 11 36 -23 -56 -130 -82 -95 -103 -155 -70 -200 11 -15 22 -17 65 -12 28 3 51 4 51 1 0 -9 -51 -95 -101 -169 -64 -97 -91 -159 -87 -203 2 -31 9 -40 39 -56 36 -19 36 -19 82 2 25 12 48 26 52 32 11 18 42 11 48 -11 3 -11 3 -78 0 -148 l-6 -128 31 -22 c33 -23 66 -22 110 5 21 14 22 20 22 169 0 85 2 155 5 155 3 0 29 -13 58 -30 30 -16 65 -30 79 -30 36 0 68 39 68 83 0 49 -15 84 -100 226 -38 65 -70 120 -70 124 0 3 13 2 29 -3 16 -4 44 -5 62 -1 28 5 35 12 37 35 4 34 -8 66 -65 170 -53 96 -54 111 -12 102 17 -3 40 -1 51 5 17 9 19 18 15 50 -3 21 -14 50 -25 64 -12 15 -26 42 -32 61 -27 80 -138 234 -169 234 -23 0 -43 -23 -74 -85 -14 -28 -50 -88 -82 -134 -43 -65 -55 -90 -50 -109 4 -16 2 -21 -6 -17 -17 11 -3 63 29 104 37 49 77 113 103 164 27 54 58 87 80 87 18 0 119 -106 119 -124 0 -6 14 -31 30 -55 17 -24 30 -51 30 -60 0 -9 12 -34 26 -55 14 -21 28 -55 31 -76 5 -33 2 -40 -21 -55 -15 -10 -37 -15 -51 -13 -14 3 -25 3 -25 1 0 -2 25 -51 55 -109 78 -150 73 -196 -20 -198 l-44 -1 36 -64 c19 -35 48 -82 63 -105 41 -61 60 -113 60 -166 0 -40 -4 -52 -26 -69 -33 -26 -64 -26 -114 -1 -56 28 -64 24 -10 -5 58 -31 91 -31 129 1 27 22 31 32 31 74 0 59 -13 91 -89 216 l-60 99 38 10 c88 23 92 62 21 201 -27 54 -50 99 -50 101 0 2 10 3 23 3 13 0 36 13 52 30 26 27 27 31 15 62 -8 18 -21 44 -30 58 -9 14 -22 41 -29 60 -6 19 -23 52 -36 72 -14 21 -25 41 -25 45 0 12 -84 112 -108 129 -19 13 -24 12 -54 -15z"/>
<path d="M830 1165 c-14 -8 -41 -14 -61 -15 l-36 0 25 -50 c14 -28 42 -64 64 -81 41 -33 68 -75 68 -107 0 -28 -29 -49 -77 -57 -24 -4 -43 -8 -43 -11 0 -18 53 -96 92 -135 41 -41 48 -54 48 -87 0 -26 -7 -45 -19 -57 -19 -16 -26 -16 -146 0 -69 9 -133 14 -140 11 -23 -8 -18 -70 10 -141 32 -80 55 -165 48 -182 -8 -20 -49 -26 -96 -14 -24 5 -56 8 -73 5 -101 -19 -104 -22 -23 -17 52 4 99 1 119 -5 25 -9 36 -8 55 4 13 8 26 21 28 28 6 14 -19 107 -52 196 -24 65 -27 109 -7 116 8 3 46 1 83 -5 163 -25 172 -25 199 0 17 16 24 33 24 61 0 33 -7 47 -45 86 -25 26 -57 66 -70 89 l-26 42 38 7 c44 8 83 39 83 66 0 30 -25 70 -69 111 -43 39 -76 92 -67 106 3 5 18 11 33 14 16 3 37 13 48 21 25 19 18 20 -15 1z"/>
</g>
</svg>